<?xml version='1.0' encoding='utf-8'?>
<mxGraphModel dx="500" dy="900" grid="1" gridSize="10" guides="1" tooltips="1" connect="1" arrows="1" fold="1" page="1" pageScale="1" pageWidth="1150" pageHeight="1150" math="0" shadow="0"><!--Created by the Sustainable Energy Systems Analysis Group--><root><mxCell id="0" /><mxCell id="1" parent="0" /><mxCell id="grinding_mill" value="grinding mill" style="shape=mxgraph.pid.crushers_grinding.crusher_(hammer);fillColor=white;verticalLabelPosition=bottom;labelPosition=center;align=center;verticalAlign=top;fontSize=20;" vertex="1" parent="1"><mxGeometry x="400.0000000000001" y="-267.14285714285705" width="150" height="80" relative="0" as="geometry" /></mxCell><mxCell id="mixing_tank" value="mixing tank" style="shape=mxgraph.pid.vessels.jacketed_mixing_vessel;fillColor=white;verticalLabelPosition=bottom;labelPosition=center;align=center;verticalAlign=top;fontSize=20;" vertex="1" parent="1"><mxGeometry x="400.0000000000001" y="-107.14285714285708" width="150" height="200" relative="0" as="geometry" /></mxCell><mxCell id="slurry_mix" value="slurry mix" style="shape=mxgraph.pid.vessels.jacketed_mixing_vessel;fillColor=white;verticalLabelPosition=bottom;labelPosition=center;align=center;verticalAlign=top;fontSize=20;" vertex="1" parent="1"><mxGeometry x="600.0000000000001" y="-107.14285714285708" width="150" height="200" relative="0" as="geometry" /></mxCell><mxCell id="liquefaction_hx" value="liquefaction hx" style="shape=mxgraph.pid.heat_exchangers.heater;fillColor=white;verticalLabelPosition=bottom;labelPosition=center;align=center;verticalAlign=top;fontSize=20;" vertex="1" parent="1"><mxGeometry x="800.0" y="-177.14285714285703" width="60" height="60" relative="0" as="geometry" /></mxCell><mxCell id="liquefaction_tank" value="liquefaction tank" style="shape=mxgraph.pid.vessels.jacketed_mixing_vessel;fillColor=white;verticalLabelPosition=bottom;labelPosition=center;align=center;verticalAlign=top;fontSize=20;" vertex="1" parent="1"><mxGeometry x="1000.0" y="-107.14285714285703" width="150" height="200" relative="0" as="geometry" /></mxCell><mxCell id="cooling_tank" value="cooling tank" style="shape=mxgraph.pid.vessels.tank_(floating_roof);fillColor=white;verticalLabelPosition=bottom;labelPosition=center;align=center;verticalAlign=top;fontSize=20;" vertex="1" parent="1"><mxGeometry x="1200.0" y="-107.14285714285703" width="160" height="200" relative="0" as="geometry" /></mxCell><mxCell id="saccharification_tank" value="saccharification tank" style="shape=mxgraph.pid.vessels.jacketed_mixing_vessel;fillColor=white;verticalLabelPosition=bottom;labelPosition=center;align=center;verticalAlign=top;fontSize=20;" vertex="1" parent="1"><mxGeometry x="399.99999999999994" y="192.85714285714292" width="150" height="200" relative="0" as="geometry" /></mxCell><mxCell id="fermentation_tank" value="fermentation tank" style="shape=mxgraph.pid.vessels.jacketed_mixing_vessel;fillColor=white;verticalLabelPosition=bottom;labelPosition=center;align=center;verticalAlign=top;fontSize=20;" vertex="1" parent="1"><mxGeometry x="399.9999999999999" y="292.8571428571429" width="150" height="200" relative="0" as="geometry" /></mxCell><mxCell id="fermentation_splitter" value="fermentation splitter" style="shape=mxgraph.pid.filters.filter;fillColor=white;verticalLabelPosition=bottom;labelPosition=center;align=center;verticalAlign=top;fontSize=20;" vertex="1" parent="1"><mxGeometry x="599.9999999999999" y="207.85714285714292" width="30" height="30" relative="0" as="geometry" /></mxCell><mxCell id="degasser" value="degasser" style="shape=mxgraph.pid.filters.filter;fillColor=white;verticalLabelPosition=bottom;labelPosition=center;align=center;verticalAlign=top;fontSize=20;" vertex="1" parent="1"><mxGeometry x="799.9999999999999" y="207.85714285714295" width="30" height="30" relative="0" as="geometry" /></mxCell><mxCell id="beer_column" value="beer column" style="shape=mxgraph.pid.vessels.tower_with_packing;fillColor=white;verticalLabelPosition=bottom;labelPosition=center;align=center;verticalAlign=top;fontSize=20;" vertex="1" parent="1"><mxGeometry x="1000.0" y="302.857142857143" width="80" height="220" relative="0" as="geometry" /></mxCell><mxCell id="centrifuge" value="centrifuge" style="shape=mxgraph.pid.centrifuges.centrifuge_(solid_shell);fillColor=white;verticalLabelPosition=bottom;labelPosition=center;align=center;verticalAlign=top;fontSize=20;" vertex="1" parent="1"><mxGeometry x="1200.0" y="142.357142857143" width="100" height="174" relative="0" as="geometry" /></mxCell><mxCell id="thin_stillage" value="thin stillage" style="shape=mxgraph.pid.vessels.jacketed_mixing_vessel;fillColor=white;verticalLabelPosition=bottom;labelPosition=center;align=center;verticalAlign=top;fontSize=20;" vertex="1" parent="1"><mxGeometry x="1400.0" y="80.357142857143" width="150" height="200" relative="0" as="geometry" /></mxCell><mxCell id="evaporator" value="evaporator" style="shape=mxgraph.pid.filters.filter;fillColor=white;verticalLabelPosition=bottom;labelPosition=center;align=center;verticalAlign=top;fontSize=20;" vertex="1" parent="1"><mxGeometry x="1600.0" y="-4.642857142856972" width="30" height="30" relative="0" as="geometry" /></mxCell><mxCell id="dryer" value="dryer" style="shape=mxgraph.pid.filters.filter;fillColor=white;verticalLabelPosition=bottom;labelPosition=center;align=center;verticalAlign=top;fontSize=20;" vertex="1" parent="1"><mxGeometry x="1400.0" y="145.357142857143" width="30" height="30" relative="0" as="geometry" /></mxCell><mxCell id="ddgs_mixer" value="ddgs mixer" style="shape=mxgraph.pid.mixers.in-line_static_mixer;fillColor=white;verticalLabelPosition=bottom;labelPosition=center;align=center;verticalAlign=top;fontSize=20;" vertex="1" parent="1"><mxGeometry x="1600.0" y="115.35714285714303" width="70" height="70" relative="0" as="geometry" /></mxCell><mxCell id="rectifier_mixer" value="rectifier mixer" style="shape=mxgraph.pid.mixers.in-line_static_mixer;fillColor=white;verticalLabelPosition=bottom;labelPosition=center;align=center;verticalAlign=top;fontSize=20;" vertex="1" parent="1"><mxGeometry x="1199.9999999999998" y="365.35714285714295" width="70" height="70" relative="0" as="geometry" /></mxCell><mxCell id="rectifier" value="rectifier" style="shape=mxgraph.pid.vessels.tower_with_packing;fillColor=white;verticalLabelPosition=bottom;labelPosition=center;align=center;verticalAlign=top;fontSize=20;" vertex="1" parent="1"><mxGeometry x="1399.9999999999998" y="440.357142857143" width="80" height="220" relative="0" as="geometry" /></mxCell><mxCell id="stripping" value="stripping" style="shape=mxgraph.pid.vessels.tower_with_packing;fillColor=white;verticalLabelPosition=bottom;labelPosition=center;align=center;verticalAlign=top;fontSize=20;" vertex="1" parent="1"><mxGeometry x="1599.9999999999998" y="390.357142857143" width="80" height="220" relative="0" as="geometry" /></mxCell><mxCell id="co2_scrubber_mixer" value="co2 scrubber mixer" style="shape=mxgraph.pid.mixers.in-line_static_mixer;fillColor=white;verticalLabelPosition=bottom;labelPosition=center;align=center;verticalAlign=top;fontSize=20;" vertex="1" parent="1"><mxGeometry x="399.9999999999999" y="377.85714285714295" width="70" height="70" relative="0" as="geometry" /></mxCell><mxCell id="co2_scrubber" value="co2 scrubber" style="shape=mxgraph.pid.filters.filter;fillColor=white;verticalLabelPosition=bottom;labelPosition=center;align=center;verticalAlign=top;fontSize=20;" vertex="1" parent="1"><mxGeometry x="599.9999999999999" y="357.85714285714295" width="30" height="30" relative="0" as="geometry" /></mxCell><mxCell edge="1" parent="1" style="edgeStyle=elbowEdgeStyle;html=1;orthogonal=1;fontFamily=Helvetica;fontSize=20;align=center;strokeWidth=6;" connectable="0" id="iCornIn" target="grinding_mill" source="iCornInl"><mxGeometry relative="1" as="geometry" /></mxCell><mxCell id="iCornInl" value="CornIn" style="rounded=1;whiteSpace=wrap;html=1;fontFamily=Helvetica;fontSize=42;align=center;" vertex="1" parent="1"><mxGeometry x="200.00000000000014" y="-307.1428571428571" width="400" height="100" as="geometry" /></mxCell><mxCell edge="1" parent="1" style="edgeStyle=elbowEdgeStyle;html=1;orthogonal=1;fontFamily=Helvetica;fontSize=20;align=center;strokeWidth=6;" connectable="0" id="s1" source="grinding_mill" target="mixing_tank" value="s1"><mxGeometry relative="1" as="geometry" /></mxCell><mxCell edge="1" parent="1" style="edgeStyle=elbowEdgeStyle;html=1;orthogonal=1;fontFamily=Helvetica;fontSize=20;align=center;strokeWidth=6;entryY=0.25;entryX=0;entryDx=0;entryDy=0;entryPerimeter=0;" connectable="0" id="iLimeIn" target="mixing_tank" source="iLimeInl"><mxGeometry relative="1" as="geometry" /></mxCell><mxCell id="iLimeInl" value="LimeIn" style="rounded=1;whiteSpace=wrap;html=1;fontFamily=Helvetica;fontSize=42;align=center;" vertex="1" parent="1"><mxGeometry x="200.00000000000009" y="-207.1428571428571" width="400" height="100" as="geometry" /></mxCell><mxCell edge="1" parent="1" style="edgeStyle=elbowEdgeStyle;html=1;orthogonal=1;fontFamily=Helvetica;fontSize=20;align=center;strokeWidth=6;entryY=0.45;entryX=0;entryDx=0;entryDy=0;entryPerimeter=0;" connectable="0" id="iAamylase" target="mixing_tank" source="iAamylasel"><mxGeometry relative="1" as="geometry" /></mxCell><mxCell id="iAamylasel" value="Aamylase" style="rounded=1;whiteSpace=wrap;html=1;fontFamily=Helvetica;fontSize=42;align=center;" vertex="1" parent="1"><mxGeometry x="200.00000000000006" y="-107.1428571428571" width="400" height="100" as="geometry" /></mxCell><mxCell edge="1" parent="1" style="edgeStyle=elbowEdgeStyle;html=1;orthogonal=1;fontFamily=Helvetica;fontSize=20;align=center;strokeWidth=6;entryY=0.65;entryX=0;entryDx=0;entryDy=0;entryPerimeter=0;" connectable="0" id="iAmmoniaIn" target="mixing_tank" source="iAmmoniaInl"><mxGeometry relative="1" as="geometry" /></mxCell><mxCell id="iAmmoniaInl" value="AmmoniaIn" style="rounded=1;whiteSpace=wrap;html=1;fontFamily=Helvetica;fontSize=42;align=center;" vertex="1" parent="1"><mxGeometry x="200.0" y="-7.1428571428571" width="400" height="100" as="geometry" /></mxCell><mxCell edge="1" parent="1" style="edgeStyle=elbowEdgeStyle;html=1;orthogonal=1;fontFamily=Helvetica;fontSize=20;align=center;strokeWidth=6;" connectable="0" id="s2" source="mixing_tank" target="slurry_mix" value="s2"><mxGeometry relative="1" as="geometry" /></mxCell><mxCell edge="1" parent="1" style="edgeStyle=elbowEdgeStyle;html=1;orthogonal=1;fontFamily=Helvetica;fontSize=20;align=center;strokeWidth=6;" connectable="0" id="s3" source="slurry_mix" target="liquefaction_hx" value="s3"><mxGeometry relative="1" as="geometry" /></mxCell><mxCell edge="1" parent="1" style="edgeStyle=elbowEdgeStyle;html=1;orthogonal=1;fontFamily=Helvetica;fontSize=20;align=center;strokeWidth=6;" connectable="0" id="s4" source="liquefaction_hx" target="liquefaction_tank" value="s4"><mxGeometry relative="1" as="geometry" /></mxCell><mxCell edge="1" parent="1" style="edgeStyle=elbowEdgeStyle;html=1;orthogonal=1;fontFamily=Helvetica;fontSize=20;align=center;strokeWidth=6;" connectable="0" id="s5" source="liquefaction_tank" target="cooling_tank" value="s5"><mxGeometry relative="1" as="geometry" /></mxCell><mxCell edge="1" parent="1" style="edgeStyle=elbowEdgeStyle;html=1;orthogonal=1;fontFamily=Helvetica;fontSize=20;align=center;strokeWidth=6;" connectable="0" id="s6" source="cooling_tank" target="saccharification_tank" value="s6"><mxGeometry relative="1" as="geometry" /></mxCell><mxCell edge="1" parent="1" style="edgeStyle=elbowEdgeStyle;html=1;orthogonal=1;fontFamily=Helvetica;fontSize=20;align=center;strokeWidth=6;entryY=0.3833333333333333;entryX=0;entryDx=0;entryDy=0;entryPerimeter=0;" connectable="0" id="iGamylase" target="saccharification_tank" source="iGamylasel"><mxGeometry relative="1" as="geometry" /></mxCell><mxCell id="iGamylasel" value="Gamylase" style="rounded=1;whiteSpace=wrap;html=1;fontFamily=Helvetica;fontSize=42;align=center;" vertex="1" parent="1"><mxGeometry x="199.99999999999994" y="92.8571428571429" width="400" height="100" as="geometry" /></mxCell><mxCell edge="1" parent="1" style="edgeStyle=elbowEdgeStyle;html=1;orthogonal=1;fontFamily=Helvetica;fontSize=20;align=center;strokeWidth=6;" connectable="0" id="s7" source="saccharification_tank" target="fermentation_tank" value="s7"><mxGeometry relative="1" as="geometry" /></mxCell><mxCell edge="1" parent="1" style="edgeStyle=elbowEdgeStyle;html=1;orthogonal=1;fontFamily=Helvetica;fontSize=20;align=center;strokeWidth=6;entryY=0.3833333333333333;entryX=0;entryDx=0;entryDy=0;entryPerimeter=0;" connectable="0" id="iYeastIn" target="fermentation_tank" source="iYeastInl"><mxGeometry relative="1" as="geometry" /></mxCell><mxCell id="iYeastInl" value="YeastIn" style="rounded=1;whiteSpace=wrap;html=1;fontFamily=Helvetica;fontSize=42;align=center;" vertex="1" parent="1"><mxGeometry x="199.99999999999994" y="192.85714285714292" width="400" height="100" as="geometry" /></mxCell><mxCell edge="1" parent="1" style="edgeStyle=elbowEdgeStyle;html=1;orthogonal=1;fontFamily=Helvetica;fontSize=20;align=center;strokeWidth=6;" connectable="0" id="s8" source="fermentation_tank" target="fermentation_splitter" value="s8"><mxGeometry relative="1" as="geometry" /></mxCell><mxCell edge="1" parent="1" style="edgeStyle=elbowEdgeStyle;html=1;orthogonal=1;fontFamily=Helvetica;fontSize=20;align=center;strokeWidth=6;" connectable="0" id="s9" source="fermentation_splitter" target="co2_scrubber_mixer" value="s9"><mxGeometry relative="1" as="geometry" /></mxCell><mxCell edge="1" parent="1" style="edgeStyle=elbowEdgeStyle;html=1;orthogonal=1;fontFamily=Helvetica;fontSize=20;align=center;strokeWidth=6;" connectable="0" id="s10" source="fermentation_splitter" target="degasser" value="s10"><mxGeometry relative="1" as="geometry" /></mxCell><mxCell edge="1" parent="1" style="edgeStyle=elbowEdgeStyle;html=1;orthogonal=1;fontFamily=Helvetica;fontSize=20;align=center;strokeWidth=6;" connectable="0" id="degasser_to_co2_scrubber" source="degasser" target="co2_scrubber_mixer" value="degasser to co2 scrubber"><mxGeometry relative="1" as="geometry" /></mxCell><mxCell edge="1" parent="1" style="edgeStyle=elbowEdgeStyle;html=1;orthogonal=1;fontFamily=Helvetica;fontSize=20;align=center;strokeWidth=6;" connectable="0" id="s12" source="degasser" target="beer_column" value="s12"><mxGeometry relative="1" as="geometry" /></mxCell><mxCell edge="1" parent="1" style="edgeStyle=elbowEdgeStyle;html=1;orthogonal=1;fontFamily=Helvetica;fontSize=20;align=center;strokeWidth=6;" connectable="0" id="s13" source="beer_column" target="rectifier_mixer" value="s13"><mxGeometry relative="1" as="geometry" /></mxCell><mxCell edge="1" parent="1" style="edgeStyle=elbowEdgeStyle;html=1;orthogonal=1;fontFamily=Helvetica;fontSize=20;align=center;strokeWidth=6;" connectable="0" id="s14" source="beer_column" target="centrifuge" value="s14"><mxGeometry relative="1" as="geometry" /></mxCell><mxCell edge="1" parent="1" style="edgeStyle=elbowEdgeStyle;html=1;orthogonal=1;fontFamily=Helvetica;fontSize=20;align=center;strokeWidth=6;" connectable="0" id="s17" source="centrifuge" target="dryer" value="s17"><mxGeometry relative="1" as="geometry" /></mxCell><mxCell edge="1" parent="1" style="edgeStyle=elbowEdgeStyle;html=1;orthogonal=1;fontFamily=Helvetica;fontSize=20;align=center;strokeWidth=6;" connectable="0" id="s18" source="centrifuge" target="thin_stillage" value="s18"><mxGeometry relative="1" as="geometry" /></mxCell><mxCell edge="1" parent="1" style="edgeStyle=elbowEdgeStyle;html=1;orthogonal=1;fontFamily=Helvetica;fontSize=20;align=center;strokeWidth=6;" connectable="0" id="s20" source="thin_stillage" target="evaporator" value="s20"><mxGeometry relative="1" as="geometry" /></mxCell><mxCell edge="1" parent="1" style="edgeStyle=elbowEdgeStyle;html=1;orthogonal=1;fontFamily=Helvetica;fontSize=20;align=center;strokeWidth=6;" connectable="0" id="oevaporatorGas" source="evaporator" target="oevaporatorGasl"><mxGeometry relative="1" as="geometry" /></mxCell><mxCell id="oevaporatorGasl" value="evaporatorGas" style="rounded=1;whiteSpace=wrap;html=1;fontFamily=Helvetica;fontSize=42;align=center;" vertex="1" parent="1"><mxGeometry x="2200.0" y="-44.642857142856954" width="400" height="100" as="geometry" /></mxCell><mxCell edge="1" parent="1" style="edgeStyle=elbowEdgeStyle;html=1;orthogonal=1;fontFamily=Helvetica;fontSize=20;align=center;strokeWidth=6;" connectable="0" id="stillage" source="evaporator" target="ddgs_mixer" value="stillage"><mxGeometry relative="1" as="geometry" /></mxCell><mxCell edge="1" parent="1" style="edgeStyle=elbowEdgeStyle;html=1;orthogonal=1;fontFamily=Helvetica;fontSize=20;align=center;strokeWidth=6;" connectable="0" id="s19" source="dryer" target="ddgs_mixer" value="s19"><mxGeometry relative="1" as="geometry" /></mxCell><mxCell edge="1" parent="1" style="edgeStyle=elbowEdgeStyle;html=1;orthogonal=1;fontFamily=Helvetica;fontSize=20;align=center;strokeWidth=6;" connectable="0" id="oDryerWaste" source="dryer" target="oDryerWastel"><mxGeometry relative="1" as="geometry" /></mxCell><mxCell id="oDryerWastel" value="DryerWaste" style="rounded=1;whiteSpace=wrap;html=1;fontFamily=Helvetica;fontSize=42;align=center;" vertex="1" parent="1"><mxGeometry x="2200.0" y="155.35714285714303" width="400" height="100" as="geometry" /></mxCell><mxCell edge="1" parent="1" style="edgeStyle=elbowEdgeStyle;html=1;orthogonal=1;fontFamily=Helvetica;fontSize=20;align=center;strokeWidth=6;" connectable="0" id="oDDGS" source="ddgs_mixer" target="oDDGSl"><mxGeometry relative="1" as="geometry" /></mxCell><mxCell id="oDDGSl" value="DDGS" style="rounded=1;whiteSpace=wrap;html=1;fontFamily=Helvetica;fontSize=42;align=center;" vertex="1" parent="1"><mxGeometry x="2200.0" y="55.357142857143046" width="400" height="100" as="geometry" /></mxCell><mxCell edge="1" parent="1" style="edgeStyle=elbowEdgeStyle;html=1;orthogonal=1;fontFamily=Helvetica;fontSize=20;align=center;strokeWidth=6;" connectable="0" id="stripping_to_rectifier" source="stripping" target="rectifier_mixer" value="stripping to rectifier"><mxGeometry relative="1" as="geometry" /></mxCell><mxCell edge="1" parent="1" style="edgeStyle=elbowEdgeStyle;html=1;orthogonal=1;fontFamily=Helvetica;fontSize=20;align=center;strokeWidth=6;" connectable="0" id="s15" source="rectifier_mixer" target="rectifier" value="s15"><mxGeometry relative="1" as="geometry" /></mxCell><mxCell edge="1" parent="1" style="edgeStyle=elbowEdgeStyle;html=1;orthogonal=1;fontFamily=Helvetica;fontSize=20;align=center;strokeWidth=6;" connectable="0" id="oEthanol_out" source="rectifier" target="oEthanol_outl"><mxGeometry relative="1" as="geometry" /></mxCell><mxCell id="oEthanol_outl" value="Ethanol out" style="rounded=1;whiteSpace=wrap;html=1;fontFamily=Helvetica;fontSize=42;align=center;" vertex="1" parent="1"><mxGeometry x="2200.0" y="355.357142857143" width="400" height="100" as="geometry" /></mxCell><mxCell edge="1" parent="1" style="edgeStyle=elbowEdgeStyle;html=1;orthogonal=1;fontFamily=Helvetica;fontSize=20;align=center;strokeWidth=6;" connectable="0" id="s16" source="rectifier" target="stripping" value="s16"><mxGeometry relative="1" as="geometry" /></mxCell><mxCell edge="1" parent="1" style="edgeStyle=elbowEdgeStyle;html=1;orthogonal=1;fontFamily=Helvetica;fontSize=20;align=center;strokeWidth=6;" connectable="0" id="oStrippingWaste" source="stripping" target="oStrippingWastel"><mxGeometry relative="1" as="geometry" /></mxCell><mxCell id="oStrippingWastel" value="StrippingWaste" style="rounded=1;whiteSpace=wrap;html=1;fontFamily=Helvetica;fontSize=42;align=center;" vertex="1" parent="1"><mxGeometry x="2200.0" y="255.35714285714306" width="400" height="100" as="geometry" /></mxCell><mxCell edge="1" parent="1" style="edgeStyle=elbowEdgeStyle;html=1;orthogonal=1;fontFamily=Helvetica;fontSize=20;align=center;strokeWidth=6;entryY=0.55;entryX=0;entryDx=0;entryDy=0;entryPerimeter=0;" connectable="0" id="iWaterIn" target="co2_scrubber_mixer" source="iWaterInl"><mxGeometry relative="1" as="geometry" /></mxCell><mxCell id="iWaterInl" value="WaterIn" style="rounded=1;whiteSpace=wrap;html=1;fontFamily=Helvetica;fontSize=42;align=center;" vertex="1" parent="1"><mxGeometry x="199.99999999999986" y="342.8571428571429" width="400" height="100" as="geometry" /></mxCell><mxCell edge="1" parent="1" style="edgeStyle=elbowEdgeStyle;html=1;orthogonal=1;fontFamily=Helvetica;fontSize=20;align=center;strokeWidth=6;" connectable="0" id="s11" source="co2_scrubber_mixer" target="co2_scrubber" value="s11"><mxGeometry relative="1" as="geometry" /></mxCell><mxCell edge="1" parent="1" style="edgeStyle=elbowEdgeStyle;html=1;orthogonal=1;fontFamily=Helvetica;fontSize=20;align=center;strokeWidth=6;" connectable="0" id="oCO2_out" source="co2_scrubber" target="oCO2_outl"><mxGeometry relative="1" as="geometry" /></mxCell><mxCell id="oCO2_outl" value="CO2 out" style="rounded=1;whiteSpace=wrap;html=1;fontFamily=Helvetica;fontSize=42;align=center;" vertex="1" parent="1"><mxGeometry x="2200.0" y="267.85714285714295" width="400" height="100" as="geometry" /></mxCell><mxCell edge="1" parent="1" style="edgeStyle=elbowEdgeStyle;html=1;orthogonal=1;fontFamily=Helvetica;fontSize=20;align=center;strokeWidth=6;" connectable="0" id="oScrubberWaste" source="co2_scrubber" target="oScrubberWastel"><mxGeometry relative="1" as="geometry" /></mxCell><mxCell id="oScrubberWastel" value="ScrubberWaste" style="rounded=1;whiteSpace=wrap;html=1;fontFamily=Helvetica;fontSize=42;align=center;" vertex="1" parent="1"><mxGeometry x="2200.0" y="367.85714285714295" width="400" height="100" as="geometry" /></mxCell></root></mxGraphModel>